<svg width="390" height="245" viewBox="0 0 390 245" fill="none" xmlns="http://www.w3.org/2000/svg">
<rect width="390" height="245" rx="16" fill="white"/>
<rect x="13" y="21" width="22" height="22" rx="2" fill="white"/>
<rect x="13.5" y="21.5" width="21" height="21" rx="1.5" stroke="#5A5A5A" stroke-opacity="0.24"/>
<path d="M51.714 25.827V37.93C51.714 38.367 51.543 38.5 51.125 38.5H49.89C49.396 38.5 49.282 38.405 49.282 37.949V28.031L46.641 29.532C46.527 29.608 46.413 29.646 46.318 29.646C46.147 29.646 46.014 29.513 45.919 29.323L45.482 28.468C45.425 28.373 45.406 28.297 45.406 28.221C45.406 28.05 45.482 27.936 45.71 27.803L49.472 25.561C49.757 25.39 49.947 25.352 50.327 25.352H51.239C51.543 25.352 51.714 25.485 51.714 25.827ZM64.3594 28.772C64.3594 30.938 62.4784 32.838 60.5024 34.7C59.8374 35.327 59.1724 35.935 58.6214 36.467H63.6564C64.0364 36.467 64.2074 36.581 64.2074 36.942V37.949C64.2074 38.31 64.0554 38.5 63.6564 38.5H56.2084C55.7524 38.5 55.6194 38.348 55.6194 37.911V36.999C55.6194 36.619 55.6954 36.467 55.9614 36.201C57.1394 35.004 58.4504 33.864 59.5144 32.762C60.9584 31.261 61.8704 30.026 61.8704 28.924C61.8704 27.746 61.0344 27.176 59.9134 27.176C59.0584 27.176 58.0514 27.499 57.1774 28.012C57.0824 28.069 56.9874 28.107 56.8924 28.107C56.7404 28.107 56.6264 27.993 56.5504 27.822L56.1134 26.872C56.0754 26.777 56.0374 26.701 56.0374 26.625C56.0374 26.473 56.1324 26.34 56.3224 26.226C57.4434 25.542 58.7924 25.105 60.2364 25.105C62.5924 25.105 64.3594 26.397 64.3594 28.772ZM74.7818 34.605C74.7818 37.132 72.5398 38.728 70.0698 38.728C68.7018 38.728 67.5238 38.481 66.5928 37.987C66.3648 37.873 66.2508 37.74 66.2508 37.569C66.2508 37.493 66.2888 37.36 66.3268 37.265L66.6688 36.334C66.7258 36.163 66.8208 36.068 66.9918 36.068C67.0678 36.068 67.1818 36.087 67.2768 36.125C68.0558 36.486 68.9678 36.733 69.9178 36.733C71.4378 36.733 72.3688 35.84 72.3688 34.529C72.3688 32.819 70.7158 32.344 69.3288 32.344H68.9868C68.6258 32.344 68.5308 32.116 68.5308 31.831V31.033C68.5308 30.729 68.6068 30.539 68.9678 30.539H69.5948C70.9818 30.539 71.8558 29.969 71.8558 28.677C71.8558 27.632 71.0958 27.043 69.9368 27.043C69.1768 27.043 68.3218 27.271 67.5428 27.708C67.4288 27.765 67.3338 27.822 67.2388 27.822C67.1058 27.822 67.0108 27.708 66.9348 27.537L66.5738 26.625C66.5358 26.549 66.5168 26.473 66.5168 26.397C66.5168 26.264 66.5928 26.15 66.7448 26.055C67.7898 25.409 68.9488 25.105 70.3168 25.105C72.3498 25.105 74.2688 26.245 74.2688 28.468C74.2688 29.836 73.3948 30.976 72.2358 31.356C73.5848 31.717 74.7818 32.933 74.7818 34.605ZM85.4322 30.672V38.025C85.4322 38.386 85.2042 38.5 84.9002 38.5H83.5132C83.1902 38.5 83.0002 38.386 83.0002 38.006V35.65H77.0152C76.5592 35.65 76.4832 35.403 76.4832 35.061V34.358C76.4832 34.016 76.5212 33.826 76.7302 33.408L80.3212 25.846C80.4732 25.504 80.6062 25.352 80.9862 25.352H82.3542C82.6582 25.352 82.7532 25.485 82.7532 25.656C82.7532 25.77 82.7152 25.865 82.6772 25.96L79.1432 33.617H83.0002V30.672C83.0002 30.292 83.2092 30.197 83.5322 30.197H84.9002C85.2422 30.197 85.4322 30.292 85.4322 30.672ZM96.4816 34.358C96.4816 37.151 94.2966 38.728 91.5036 38.728C90.2686 38.728 89.0526 38.424 87.9886 37.854C87.7796 37.74 87.6656 37.607 87.6656 37.455C87.6656 37.379 87.6846 37.284 87.7416 37.17L88.1786 36.163C88.2546 36.011 88.3496 35.897 88.5016 35.897C88.5966 35.897 88.6916 35.935 88.8246 36.011C89.7556 36.505 90.6866 36.714 91.6176 36.714C92.9666 36.714 94.0306 35.897 94.0306 34.472C94.0306 33.712 93.7646 33.085 93.3086 32.686C92.7006 32.154 91.8266 31.964 90.7816 31.964H89.2046C88.7296 31.964 88.5586 31.717 88.5586 31.242V25.998C88.5586 25.504 88.7486 25.352 89.1666 25.352H95.3226C95.7026 25.352 95.8736 25.504 95.8736 25.884V26.872C95.8736 27.233 95.7406 27.404 95.3416 27.404H90.9716V30.159H91.3136C94.0496 30.159 96.4816 31.375 96.4816 34.358ZM107.189 34.016C107.189 36.543 105.574 38.728 102.8 38.728C99.228 38.728 98.126 35.802 98.126 32.819C98.126 29.19 99.627 25.105 103.826 25.105C104.434 25.105 105.232 25.2 105.878 25.371C106.201 25.466 106.258 25.656 106.201 25.941L105.973 26.967C105.935 27.176 105.84 27.309 105.631 27.309C105.593 27.309 105.536 27.309 105.441 27.29C105.004 27.195 104.472 27.1 104.016 27.1C103.142 27.1 102.477 27.347 101.964 27.86C101.299 28.525 100.957 29.57 100.824 30.805C101.489 30.254 102.249 30.007 103.199 30.007C105.479 30.007 107.189 31.356 107.189 34.016ZM104.7 34.187C104.7 33.009 104.168 31.983 102.876 31.983C102.097 31.983 101.166 32.401 100.634 32.933V33.408C100.653 35.479 101.375 36.714 102.819 36.714C104.187 36.714 104.7 35.346 104.7 34.187ZM117.782 25.865V26.796C117.782 27.1 117.725 27.328 117.573 27.651L112.576 38.006C112.367 38.424 112.158 38.5 111.74 38.5H110.068C109.84 38.5 109.688 38.367 109.688 38.158C109.688 38.063 109.707 37.968 109.764 37.854L114.932 27.442H109.536C109.156 27.442 109.042 27.233 109.042 26.91V25.865C109.042 25.542 109.137 25.352 109.517 25.352H117.25C117.63 25.352 117.782 25.504 117.782 25.865ZM128.547 34.624C128.547 37.17 126.362 38.728 123.854 38.728C121.346 38.728 119.237 37.436 119.237 34.833C119.237 34.32 119.408 33.693 119.731 33.18C120.187 32.42 120.966 31.793 121.745 31.451C120.643 30.919 119.807 29.817 119.807 28.563C119.807 26.397 121.669 25.105 123.949 25.105C126.172 25.105 127.939 26.302 127.939 28.506C127.939 29.703 126.989 30.824 125.944 31.375C127.483 32.002 128.547 33.218 128.547 34.624ZM125.526 28.582C125.526 27.651 124.88 26.986 123.854 26.986C122.961 26.986 122.201 27.651 122.201 28.506C122.201 29.456 123.075 30.159 123.968 30.596C124.69 30.197 125.526 29.57 125.526 28.582ZM126.096 34.738C126.096 33.465 124.747 32.724 123.721 32.325C122.733 32.8 121.688 33.598 121.688 34.719C121.688 35.992 122.714 36.828 123.911 36.828C125.108 36.828 126.096 36.087 126.096 34.738ZM139.064 30.995C139.064 33.484 138.342 36.201 136.537 37.664C135.72 38.329 134.618 38.728 133.326 38.728C132.718 38.728 131.863 38.595 131.293 38.443C131.065 38.386 130.951 38.272 130.951 38.101C130.951 38.025 130.97 37.911 130.989 37.797L131.198 36.847C131.236 36.638 131.312 36.524 131.521 36.524C131.559 36.524 131.616 36.524 131.673 36.543C132.129 36.638 132.623 36.714 133.079 36.714C133.991 36.714 134.694 36.467 135.207 35.954C135.853 35.289 136.214 34.244 136.347 33.009C135.644 33.56 134.732 33.807 133.953 33.807C131.673 33.807 129.982 32.458 129.982 29.798C129.982 27.271 131.597 25.105 134.371 25.105C137.943 25.105 139.064 28.012 139.064 30.995ZM136.537 30.805V30.406C136.499 28.335 135.796 27.1 134.352 27.1C133.079 27.1 132.471 28.297 132.471 29.627C132.471 30.843 133.041 31.831 134.295 31.831C135.055 31.831 136.062 31.451 136.537 30.805ZM148.673 24.117H150.706V42.813H148.673V24.117ZM173.11 25.352C173.471 25.352 173.547 25.504 173.509 25.789L173.376 26.929C173.338 27.271 173.129 27.328 172.73 27.328H167.961V30.767H172.35C172.711 30.767 172.825 30.919 172.825 31.185V32.268C172.825 32.591 172.692 32.724 172.369 32.724H167.961V38.025C167.961 38.367 167.828 38.5 167.505 38.5H166.023C165.643 38.5 165.51 38.405 165.51 37.987V25.827C165.51 25.523 165.643 25.352 165.947 25.352H173.11ZM177.83 26.872C177.83 27.613 177.184 28.069 176.557 28.069C175.93 28.069 175.265 27.651 175.265 26.891C175.265 26.131 175.892 25.675 176.557 25.675C177.203 25.675 177.83 26.112 177.83 26.872ZM177.716 29.722V38.025C177.716 38.367 177.564 38.5 177.241 38.5H175.911C175.569 38.5 175.417 38.367 175.417 38.025V29.722C175.417 29.399 175.607 29.285 175.911 29.285H177.241C177.545 29.285 177.716 29.38 177.716 29.722ZM188.351 38.253C188.351 38.386 188.237 38.5 188.028 38.5H186.128C185.748 38.5 185.596 38.386 185.463 38.158L183.677 35.251H183.658L181.834 38.12C181.663 38.386 181.473 38.5 181.112 38.5H179.459C179.307 38.5 179.25 38.405 179.25 38.272C179.25 38.196 179.288 38.101 179.345 38.025L182.575 33.731L179.763 29.703C179.725 29.646 179.706 29.589 179.706 29.532C179.706 29.399 179.801 29.285 179.972 29.285H181.91C182.195 29.285 182.385 29.399 182.499 29.589L184 31.983H184.019L185.577 29.608C185.729 29.38 185.881 29.285 186.128 29.285H187.819C187.99 29.285 188.066 29.38 188.066 29.494C188.066 29.57 188.047 29.627 187.99 29.684L185.083 33.465L188.256 37.987C188.313 38.082 188.351 38.177 188.351 38.253ZM194.169 36.885C194.967 36.885 195.765 36.714 196.506 36.429C196.715 36.353 196.905 36.315 196.981 36.6L197.247 37.569C197.266 37.664 197.285 37.74 197.285 37.797C197.285 37.93 197.209 38.025 196.981 38.12C196.05 38.538 194.777 38.728 193.789 38.728C190.806 38.728 189.039 36.828 189.039 33.864C189.039 31.014 190.92 29.038 193.751 29.038C194.91 29.038 195.86 29.475 196.525 30.178C197.399 31.09 197.646 32.287 197.646 33.579V33.864C197.646 34.32 197.494 34.415 197.019 34.415H191.452C191.604 35.878 192.668 36.885 194.169 36.885ZM191.49 32.914H195.385V32.705C195.347 31.717 194.777 30.805 193.618 30.805C192.383 30.805 191.642 31.793 191.49 32.914ZM207.557 25.295V38.025C207.557 38.348 207.367 38.5 207.139 38.5H205.904C205.6 38.5 205.467 38.348 205.448 38.12L205.41 37.607C204.878 38.215 203.814 38.728 202.826 38.728C200.071 38.728 198.817 36.543 198.817 33.997C198.817 31.337 200.299 29.019 202.978 29.019C203.833 29.019 204.726 29.361 205.258 29.912V25.637C205.258 25.295 205.353 25.162 205.657 25.124L207.253 24.915C207.481 24.915 207.557 25.01 207.557 25.295ZM205.258 35.916V31.793C204.878 31.28 204.156 30.862 203.434 30.862C201.895 30.862 201.211 32.306 201.211 33.864C201.211 35.422 201.781 36.866 203.32 36.866C204.023 36.866 204.878 36.391 205.258 35.916Z" fill="#212121"/>
<path d="M19.024 70.072V70.728C19.024 70.936 18.944 71 18.752 71H13.536C13.328 71 13.216 70.904 13.216 70.648V60.312C13.216 60.104 13.312 59.976 13.52 59.976H14.384C14.608 59.976 14.704 60.072 14.704 60.312V69.816H18.72C18.944 69.816 19.024 69.88 19.024 70.072ZM21.9856 61.384C21.9856 61.848 21.5696 62.152 21.1536 62.152C20.7216 62.152 20.3376 61.848 20.3376 61.384C20.3376 60.92 20.7216 60.616 21.1536 60.616C21.5856 60.616 21.9856 60.92 21.9856 61.384ZM21.8416 63.592V70.664C21.8416 70.888 21.7456 71 21.5376 71H20.8016C20.5936 71 20.4816 70.888 20.4816 70.664V63.592C20.4816 63.368 20.5936 63.272 20.8016 63.272H21.5376C21.7456 63.272 21.8416 63.368 21.8416 63.592ZM30.6305 65.96V70.664C30.6305 70.888 30.5505 71 30.3265 71H29.5745C29.3665 71 29.2705 70.888 29.2705 70.664V66.184C29.2705 65.048 28.9825 64.232 27.7025 64.232C26.9665 64.232 26.0545 64.648 25.4945 65.16V70.664C25.4945 70.888 25.3985 71 25.1905 71H24.4385C24.2465 71 24.1345 70.888 24.1345 70.68V63.592C24.1345 63.368 24.2145 63.272 24.4385 63.272H25.1425C25.3345 63.272 25.4465 63.352 25.4465 63.56L25.4625 64.056C26.1985 63.432 27.1585 63.096 28.0865 63.096C29.9265 63.096 30.6305 64.216 30.6305 65.96ZM39.1435 66.616V66.888C39.1435 67.256 39.0795 67.336 38.6635 67.336H33.7515C33.7995 68.856 34.6635 70.04 36.2795 70.04C36.9355 70.04 37.6555 69.912 38.1995 69.704C38.3435 69.656 38.5035 69.624 38.5515 69.816L38.7275 70.408C38.7755 70.552 38.6955 70.616 38.5515 70.696C37.8635 71.016 36.8395 71.16 36.1035 71.16C33.6395 71.16 32.3275 69.544 32.3275 67.128C32.3275 64.84 33.7515 63.096 36.0555 63.096C36.9675 63.096 37.7035 63.432 38.2315 63.976C38.8715 64.632 39.1435 65.576 39.1435 66.616ZM33.7835 66.408H37.7995V66.184C37.7995 65.096 37.2075 64.152 35.9915 64.152C34.6635 64.152 33.9115 65.224 33.7835 66.408ZM53.2946 60.312V70.664C53.2946 70.936 53.2146 71 53.0226 71H52.2866C52.0946 71 51.9666 70.92 51.8066 70.696L46.0306 62.6H45.9986V70.664C45.9986 70.888 45.8866 71 45.6786 71H44.9426C44.7186 71 44.6226 70.904 44.6226 70.664V60.312C44.6226 60.072 44.7346 59.976 44.9426 59.976H45.5826C45.7746 59.976 45.8706 60.024 45.9986 60.216L51.8866 68.488H51.9186V60.312C51.9186 60.056 52.0146 59.976 52.2226 59.976H52.9906C53.2306 59.976 53.2946 60.072 53.2946 60.312ZM62.4356 67.128C62.4356 69.384 61.1236 71.16 58.7396 71.16C56.2596 71.16 55.1556 69.4 55.1556 67.112C55.1556 64.856 56.4516 63.096 58.8356 63.096C61.3156 63.096 62.4356 64.808 62.4356 67.128ZM61.0276 67.144C61.0276 65.656 60.4836 64.152 58.8196 64.152C57.0916 64.152 56.5636 65.672 56.5636 67.08C56.5636 68.552 57.0596 70.104 58.7556 70.104C60.4356 70.104 61.0276 68.632 61.0276 67.144ZM65.8145 64.008C65.8145 64.568 65.3185 64.904 64.8705 64.904C64.4225 64.904 63.9105 64.584 63.9105 64.008C63.9105 63.432 64.3905 63.096 64.8705 63.096C65.3505 63.096 65.8145 63.432 65.8145 64.008ZM65.8145 70.248C65.8145 70.808 65.3185 71.16 64.8705 71.16C64.4225 71.16 63.9105 70.84 63.9105 70.264C63.9105 69.688 64.3905 69.368 64.8705 69.368C65.3505 69.368 65.8145 69.672 65.8145 70.248Z" fill="#8E8E8E"/>
<path d="M324.221 65.826C324.221 67.568 323.753 69.401 322.635 70.389C322.102 70.857 321.309 71.13 320.477 71.13C320.126 71.13 319.645 71.052 319.346 70.974C319.19 70.935 319.177 70.844 319.203 70.701L319.307 70.233C319.346 70.038 319.398 70.038 319.541 70.064C319.814 70.116 320.139 70.155 320.399 70.155C321.01 70.155 321.569 69.96 321.933 69.583C322.479 69.011 322.778 68.049 322.895 66.892C322.336 67.438 321.647 67.646 321.036 67.646C319.593 67.646 318.488 66.671 318.488 64.968C318.488 63.265 319.528 61.887 321.257 61.887C323.48 61.887 324.221 63.72 324.221 65.826ZM322.973 65.527C322.973 63.928 322.453 62.862 321.244 62.862C320.126 62.862 319.736 63.967 319.736 64.864C319.736 65.787 320.139 66.671 321.192 66.671C321.764 66.671 322.453 66.411 322.96 65.839C322.96 65.761 322.973 65.631 322.973 65.527ZM331.485 68.452C331.485 70.09 330.12 71.13 328.495 71.13C326.857 71.13 325.544 70.259 325.544 68.582C325.544 68.179 325.687 67.763 325.934 67.399C326.272 66.905 326.831 66.476 327.481 66.229C326.584 65.826 325.921 65.059 325.921 64.123C325.921 62.797 327.091 61.887 328.547 61.887C329.977 61.887 331.082 62.719 331.082 64.084C331.082 64.916 330.367 65.735 329.522 66.138C330.835 66.684 331.485 67.49 331.485 68.452ZM329.847 64.097C329.847 63.317 329.353 62.784 328.495 62.784C327.728 62.784 327.156 63.33 327.156 64.071C327.156 64.903 327.806 65.371 328.547 65.735C329.119 65.449 329.847 64.903 329.847 64.097ZM330.25 68.556C330.25 68.101 330.094 67.776 329.795 67.477C329.457 67.139 328.963 66.866 328.417 66.645C327.546 67.009 326.779 67.594 326.779 68.53C326.779 69.609 327.65 70.233 328.534 70.233C329.418 70.233 330.25 69.661 330.25 68.556ZM338.581 62.303V62.732C338.581 62.888 338.529 63.044 338.464 63.2L334.967 70.74C334.876 70.922 334.759 71 334.564 71H333.836C333.693 71 333.628 70.909 333.628 70.805C333.628 70.753 333.641 70.714 333.667 70.662L337.255 63.057H333.108C332.9 63.057 332.835 62.979 332.835 62.797V62.303C332.835 62.134 332.887 62.043 333.095 62.043H338.308C338.516 62.043 338.581 62.108 338.581 62.303ZM345.611 70.259V70.714C345.611 70.896 345.533 71 345.299 71H340.398C340.177 71 340.112 70.922 340.112 70.714V70.285C340.112 70.103 340.138 70.025 340.268 69.895C340.957 69.167 341.737 68.452 342.4 67.737C343.635 66.411 344.363 65.371 344.363 64.383C344.363 63.46 343.713 62.914 342.803 62.914C342.179 62.914 341.529 63.122 340.944 63.46C340.892 63.486 340.853 63.499 340.814 63.499C340.736 63.499 340.684 63.447 340.632 63.343L340.437 62.927C340.411 62.875 340.398 62.823 340.398 62.784C340.398 62.706 340.45 62.641 340.541 62.576C341.243 62.134 342.114 61.887 342.972 61.887C344.415 61.887 345.611 62.719 345.611 64.266C345.611 65.618 344.792 66.749 343.193 68.413C342.673 68.959 342.127 69.492 341.62 69.999H345.299C345.52 69.999 345.611 70.064 345.611 70.259ZM355.78 70.259V70.714C355.78 70.896 355.702 71 355.468 71H350.567C350.346 71 350.281 70.922 350.281 70.714V70.285C350.281 70.103 350.307 70.025 350.437 69.895C351.126 69.167 351.906 68.452 352.569 67.737C353.804 66.411 354.532 65.371 354.532 64.383C354.532 63.46 353.882 62.914 352.972 62.914C352.348 62.914 351.698 63.122 351.113 63.46C351.061 63.486 351.022 63.499 350.983 63.499C350.905 63.499 350.853 63.447 350.801 63.343L350.606 62.927C350.58 62.875 350.567 62.823 350.567 62.784C350.567 62.706 350.619 62.641 350.71 62.576C351.412 62.134 352.283 61.887 353.141 61.887C354.584 61.887 355.78 62.719 355.78 64.266C355.78 65.618 354.961 66.749 353.362 68.413C352.842 68.959 352.296 69.492 351.789 69.999H355.468C355.689 69.999 355.78 70.064 355.78 70.259ZM362.928 70.259V70.714C362.928 70.896 362.85 71 362.616 71H357.715C357.494 71 357.429 70.922 357.429 70.714V70.285C357.429 70.103 357.455 70.025 357.585 69.895C358.274 69.167 359.054 68.452 359.717 67.737C360.952 66.411 361.68 65.371 361.68 64.383C361.68 63.46 361.03 62.914 360.12 62.914C359.496 62.914 358.846 63.122 358.261 63.46C358.209 63.486 358.17 63.499 358.131 63.499C358.053 63.499 358.001 63.447 357.949 63.343L357.754 62.927C357.728 62.875 357.715 62.823 357.715 62.784C357.715 62.706 357.767 62.641 357.858 62.576C358.56 62.134 359.431 61.887 360.289 61.887C361.732 61.887 362.928 62.719 362.928 64.266C362.928 65.618 362.109 66.749 360.51 68.413C359.99 68.959 359.444 69.492 358.937 69.999H362.616C362.837 69.999 362.928 70.064 362.928 70.259ZM370.075 70.259V70.714C370.075 70.896 369.997 71 369.763 71H364.862C364.641 71 364.576 70.922 364.576 70.714V70.285C364.576 70.103 364.602 70.025 364.732 69.895C365.421 69.167 366.201 68.452 366.864 67.737C368.099 66.411 368.827 65.371 368.827 64.383C368.827 63.46 368.177 62.914 367.267 62.914C366.643 62.914 365.993 63.122 365.408 63.46C365.356 63.486 365.317 63.499 365.278 63.499C365.2 63.499 365.148 63.447 365.096 63.343L364.901 62.927C364.875 62.875 364.862 62.823 364.862 62.784C364.862 62.706 364.914 62.641 365.005 62.576C365.707 62.134 366.578 61.887 367.436 61.887C368.879 61.887 370.075 62.719 370.075 64.266C370.075 65.618 369.256 66.749 367.657 68.413C367.137 68.959 366.591 69.492 366.084 69.999H369.763C369.984 69.999 370.075 70.064 370.075 70.259ZM377.223 70.259V70.714C377.223 70.896 377.145 71 376.911 71H372.01C371.789 71 371.724 70.922 371.724 70.714V70.285C371.724 70.103 371.75 70.025 371.88 69.895C372.569 69.167 373.349 68.452 374.012 67.737C375.247 66.411 375.975 65.371 375.975 64.383C375.975 63.46 375.325 62.914 374.415 62.914C373.791 62.914 373.141 63.122 372.556 63.46C372.504 63.486 372.465 63.499 372.426 63.499C372.348 63.499 372.296 63.447 372.244 63.343L372.049 62.927C372.023 62.875 372.01 62.823 372.01 62.784C372.01 62.706 372.062 62.641 372.153 62.576C372.855 62.134 373.726 61.887 374.584 61.887C376.027 61.887 377.223 62.719 377.223 64.266C377.223 65.618 376.404 66.749 374.805 68.413C374.285 68.959 373.739 69.492 373.232 69.999H376.911C377.132 69.999 377.223 70.064 377.223 70.259Z" fill="#8E8E8E"/>
<path d="M24.208 111.712C24.208 111.936 24.128 112 23.92 112H23.008C22.784 112 22.72 111.904 22.704 111.632L22.432 103.888H22.4L19.312 111.808C19.248 111.968 19.152 112 19.024 112H18.48C18.32 112 18.24 111.968 18.16 111.776L14.816 103.888H14.8L14.608 111.712C14.608 111.936 14.528 112 14.288 112H13.504C13.296 112 13.216 111.936 13.216 111.728V111.696L13.584 101.312C13.6 101.04 13.664 100.976 13.84 100.976H14.528C14.784 100.976 14.864 101.04 14.944 101.216L18.832 109.936H18.848L22.432 101.232C22.512 101.04 22.592 100.976 22.784 100.976H23.52C23.712 100.976 23.76 101.056 23.776 101.264L24.208 111.664V111.712ZM33.5503 111.248V111.792C33.5503 111.952 33.4703 112 33.3103 112H32.6383C31.9343 112 31.5983 111.456 31.5983 110.816H31.5663C31.1983 111.52 30.1423 112.16 29.1663 112.16C26.9583 112.16 25.9823 110.288 25.9823 108.272C25.9823 105.6 27.5663 104.096 29.3903 104.096C30.1903 104.096 31.0543 104.432 31.5343 105.072L31.5503 104.544C31.5503 104.352 31.6783 104.272 31.8543 104.272H32.5743C32.7663 104.272 32.8623 104.368 32.8623 104.576V110.176C32.8623 110.544 32.8783 110.8 32.9423 110.896C33.0063 111.008 33.0863 111.04 33.2143 111.04H33.3263C33.4703 111.04 33.5503 111.072 33.5503 111.248ZM31.5023 109.408V106.336C31.1183 105.616 30.3343 105.184 29.5663 105.184C28.3343 105.184 27.4062 106.272 27.4062 108.176C27.4062 109.936 28.2223 111.024 29.3743 111.024C30.3983 111.024 31.2143 110.208 31.5023 109.408ZM36.0796 104.272C36.2876 104.272 36.3996 104.352 36.3996 104.56L36.4156 105.104C36.7996 104.576 37.4076 104.096 38.2556 104.096C38.3676 104.096 38.5596 104.112 38.7196 104.144C38.8636 104.176 38.8636 104.304 38.8476 104.416L38.7356 105.136C38.7196 105.248 38.6556 105.296 38.5596 105.296C38.4316 105.296 38.3356 105.248 38.0476 105.248C37.4876 105.248 36.8636 105.616 36.4476 106.208V111.664C36.4476 111.872 36.3516 112 36.1436 112H35.3916C35.1836 112 35.0876 111.888 35.0876 111.664V104.592C35.0876 104.352 35.1996 104.272 35.3916 104.272H36.0796ZM45.688 111.488C45.688 111.584 45.64 111.632 45.496 111.696C44.808 112.016 44.072 112.16 43.336 112.16C40.824 112.16 39.608 110.528 39.608 108.144C39.608 105.792 41.032 104.096 43.432 104.096C44.12 104.096 44.92 104.272 45.48 104.56C45.592 104.608 45.64 104.672 45.64 104.768C45.64 104.816 45.624 104.848 45.608 104.896L45.48 105.408C45.448 105.52 45.4 105.6 45.304 105.6C45.272 105.6 45.208 105.584 45.16 105.552C44.664 105.328 44.12 105.152 43.496 105.152C41.976 105.152 41.016 106.288 41.016 108.08C41.016 109.712 41.72 111.12 43.432 111.12C44.12 111.12 44.712 110.96 45.224 110.736C45.272 110.72 45.32 110.704 45.352 110.704C45.432 110.704 45.48 110.752 45.512 110.864L45.656 111.312C45.672 111.376 45.688 111.44 45.688 111.488ZM53.4899 106.96V111.696C53.4899 111.904 53.4259 112 53.2339 112H52.4019C52.2099 112 52.1299 111.904 52.1299 111.696V107.184C52.1299 106.064 51.8419 105.232 50.5779 105.232C49.8419 105.232 48.9139 105.648 48.3539 106.16V111.696C48.3539 111.904 48.2739 112 48.0819 112H47.2499C47.0739 112 46.9939 111.904 46.9939 111.712V101.072C46.9939 100.848 47.1059 100.768 47.2979 100.736C47.9059 100.656 48.0659 100.624 48.1139 100.624C48.2579 100.624 48.3539 100.688 48.3539 100.896V105.04C49.0579 104.416 50.0819 104.096 50.9779 104.096C52.8179 104.096 53.4899 105.216 53.4899 106.96ZM66.1213 111.088V111.648C66.1213 111.872 66.0253 112 65.7373 112H59.7053C59.4333 112 59.3533 111.904 59.3533 111.648V111.12C59.3533 110.896 59.3853 110.8 59.5453 110.64C60.3932 109.744 61.3533 108.864 62.1693 107.984C63.6893 106.352 64.5853 105.072 64.5853 103.856C64.5853 102.72 63.7853 102.048 62.6653 102.048C61.8973 102.048 61.0973 102.304 60.3773 102.72C60.3133 102.752 60.2653 102.768 60.2173 102.768C60.1213 102.768 60.0573 102.704 59.9933 102.576L59.7533 102.064C59.7213 102 59.7053 101.936 59.7053 101.888C59.7053 101.792 59.7693 101.712 59.8813 101.632C60.7453 101.088 61.8173 100.784 62.8733 100.784C64.6493 100.784 66.1213 101.808 66.1213 103.712C66.1213 105.376 65.1133 106.768 63.1453 108.816C62.5052 109.488 61.8333 110.144 61.2093 110.768H65.7373C66.0093 110.768 66.1213 110.848 66.1213 111.088ZM75.2701 106.448C75.2701 108.992 74.3581 112.16 71.4621 112.16C68.5661 112.16 67.6861 109.04 67.6861 106.496C67.6861 103.968 68.6461 100.784 71.5101 100.784C74.4061 100.784 75.2701 103.904 75.2701 106.448ZM73.7181 106.464C73.7181 104.56 73.2701 102.032 71.4941 102.032C69.6701 102.032 69.2381 104.592 69.2381 106.464C69.2381 108.352 69.6541 110.896 71.4781 110.896C73.3021 110.896 73.7181 108.336 73.7181 106.464ZM83.715 111.088V111.648C83.715 111.872 83.619 112 83.331 112H77.299C77.027 112 76.947 111.904 76.947 111.648V111.12C76.947 110.896 76.979 110.8 77.139 110.64C77.987 109.744 78.947 108.864 79.763 107.984C81.283 106.352 82.179 105.072 82.179 103.856C82.179 102.72 81.379 102.048 80.259 102.048C79.491 102.048 78.691 102.304 77.971 102.72C77.907 102.752 77.859 102.768 77.811 102.768C77.715 102.768 77.651 102.704 77.587 102.576L77.347 102.064C77.315 102 77.299 101.936 77.299 101.888C77.299 101.792 77.363 101.712 77.475 101.632C78.339 101.088 79.411 100.784 80.467 100.784C82.243 100.784 83.715 101.808 83.715 103.712C83.715 105.376 82.707 106.768 80.739 108.816C80.099 109.488 79.427 110.144 78.803 110.768H83.331C83.603 110.768 83.715 110.848 83.715 111.088ZM89.0079 100.976H89.9199C90.0479 100.976 90.0959 101.024 90.0959 101.12C90.0959 101.184 90.0799 101.28 90.0319 101.376L86.9759 108.208H90.9119V105.648C90.9119 105.392 91.0399 105.344 91.2479 105.344H92.0319C92.2559 105.344 92.3519 105.408 92.3519 105.648V111.696C92.3519 111.92 92.2559 112 92.0639 112H91.2319C91.0239 112 90.9119 111.92 90.9119 111.68V109.44H85.7279C85.4399 109.44 85.3759 109.296 85.3759 109.056V108.672C85.3759 108.448 85.4079 108.32 85.5519 108L88.6079 101.296C88.6879 101.12 88.7839 100.976 89.0079 100.976Z" fill="#212121"/>
<path d="M316.327 109.463C316.327 112.414 314.676 114.13 312.505 114.13C310.178 114.13 308.813 112.388 308.813 109.554C308.813 106.733 310.36 104.887 312.622 104.887C315.014 104.887 316.327 106.759 316.327 109.463ZM315.04 109.502C315.04 107.214 314.182 105.888 312.596 105.888C311.101 105.888 310.087 107.37 310.087 109.515C310.087 111.79 310.997 113.142 312.557 113.142C314.026 113.142 315.04 111.738 315.04 109.502ZM326.815 113.766C326.815 113.948 326.75 114 326.581 114H325.84C325.658 114 325.606 113.922 325.593 113.701L325.372 107.409H325.346L322.837 113.844C322.785 113.974 322.707 114 322.603 114H322.161C322.031 114 321.966 113.974 321.901 113.818L319.184 107.409H319.171L319.015 113.766C319.015 113.948 318.95 114 318.755 114H318.118C317.949 114 317.884 113.948 317.884 113.779V113.753L318.183 105.316C318.196 105.095 318.248 105.043 318.391 105.043H318.95C319.158 105.043 319.223 105.095 319.288 105.238L322.447 112.323H322.46L325.372 105.251C325.437 105.095 325.502 105.043 325.658 105.043H326.256C326.412 105.043 326.451 105.108 326.464 105.277L326.815 113.727V113.766ZM333.184 113.766L331.234 110.36H329.986V113.727C329.986 113.896 329.908 114 329.739 114H329.024C328.855 114 328.777 113.909 328.777 113.727V105.329C328.777 105.121 328.842 105.043 329.037 105.043H330.909C332.079 105.043 333.08 105.277 333.652 105.979C334.003 106.408 334.185 106.98 334.185 107.669C334.185 108.917 333.392 109.801 332.365 110.152L332.378 110.178L334.497 113.727C334.575 113.844 334.549 114 334.367 114H333.587C333.392 114 333.275 113.935 333.184 113.766ZM332.963 107.682C332.963 106.408 332.157 105.966 330.818 105.966H329.986V109.45H330.987C332.131 109.45 332.963 108.839 332.963 107.682Z" fill="#8E8E8E"/>
<path d="M347.387 113.088V113.648C347.387 113.872 347.291 114 347.003 114H340.971C340.699 114 340.619 113.904 340.619 113.648V113.12C340.619 112.896 340.651 112.8 340.811 112.64C341.659 111.744 342.619 110.864 343.435 109.984C344.955 108.352 345.851 107.072 345.851 105.856C345.851 104.72 345.051 104.048 343.931 104.048C343.163 104.048 342.363 104.304 341.643 104.72C341.579 104.752 341.531 104.768 341.483 104.768C341.387 104.768 341.323 104.704 341.259 104.576L341.019 104.064C340.987 104 340.971 103.936 340.971 103.888C340.971 103.792 341.035 103.712 341.147 103.632C342.011 103.088 343.083 102.784 344.139 102.784C345.915 102.784 347.387 103.808 347.387 105.712C347.387 107.376 346.379 108.768 344.411 110.816C343.771 111.488 343.099 112.144 342.475 112.768H347.003C347.275 112.768 347.387 112.848 347.387 113.088ZM356.392 110.864C356.392 112.88 354.712 114.16 352.712 114.16C350.696 114.16 349.08 113.088 349.08 111.024C349.08 110.528 349.256 110.016 349.56 109.568C349.976 108.96 350.664 108.432 351.464 108.128C350.36 107.632 349.544 106.688 349.544 105.536C349.544 103.904 350.984 102.784 352.776 102.784C354.536 102.784 355.896 103.808 355.896 105.488C355.896 106.512 355.016 107.52 353.976 108.016C355.592 108.688 356.392 109.68 356.392 110.864ZM354.376 105.504C354.376 104.544 353.768 103.888 352.712 103.888C351.768 103.888 351.064 104.56 351.064 105.472C351.064 106.496 351.864 107.072 352.776 107.52C353.48 107.168 354.376 106.496 354.376 105.504ZM354.872 110.992C354.872 110.432 354.68 110.032 354.312 109.664C353.896 109.248 353.288 108.912 352.616 108.64C351.544 109.088 350.6 109.808 350.6 110.96C350.6 112.288 351.672 113.056 352.76 113.056C353.848 113.056 354.872 112.352 354.872 110.992ZM359.813 113.296C359.813 113.824 359.349 114.208 358.869 114.208C358.389 114.208 357.909 113.856 357.909 113.312C357.909 112.752 358.357 112.416 358.869 112.416C359.365 112.416 359.813 112.752 359.813 113.296ZM364.742 102.976H365.654C365.782 102.976 365.83 103.024 365.83 103.12C365.83 103.184 365.814 103.28 365.766 103.376L362.71 110.208H366.646V107.648C366.646 107.392 366.774 107.344 366.982 107.344H367.766C367.99 107.344 368.086 107.408 368.086 107.648V113.696C368.086 113.92 367.99 114 367.798 114H366.966C366.758 114 366.646 113.92 366.646 113.68V111.44H361.462C361.174 111.44 361.11 111.296 361.11 111.056V110.672C361.11 110.448 361.142 110.32 361.286 110L364.342 103.296C364.422 103.12 364.518 102.976 364.742 102.976ZM376.947 110.784C376.947 112.832 375.219 114.16 373.219 114.16C372.243 114.16 371.283 114.016 370.499 113.6C370.371 113.536 370.307 113.456 370.307 113.376C370.307 113.344 370.323 113.312 370.339 113.264L370.595 112.592C370.627 112.496 370.707 112.464 370.787 112.464C370.835 112.464 370.883 112.48 370.931 112.496C371.603 112.8 372.339 112.976 373.107 112.976C374.483 112.976 375.427 112.128 375.427 110.784C375.427 109.28 374.211 108.624 372.803 108.624H372.339C372.131 108.624 372.067 108.512 372.067 108.336V107.792C372.067 107.616 372.115 107.52 372.323 107.52H372.787C374.115 107.52 375.011 106.928 375.011 105.616C375.011 104.496 374.195 103.936 373.075 103.936C372.467 103.936 371.731 104.144 371.123 104.48C371.043 104.528 370.995 104.544 370.947 104.544C370.883 104.544 370.835 104.496 370.787 104.384L370.531 103.808C370.515 103.76 370.499 103.728 370.499 103.696C370.499 103.616 370.547 103.568 370.643 103.504C371.443 103.024 372.339 102.784 373.331 102.784C374.963 102.784 376.531 103.76 376.531 105.52C376.531 106.656 375.747 107.68 374.723 108C376.003 108.304 376.947 109.408 376.947 110.784Z" fill="#212121"/>
<line x1="12" y1="130.5" x2="378" y2="130.5" stroke="#8E8E8E" stroke-dasharray="2 3"/>
<path d="M22.868 148.327L22.735 149.429C22.697 149.752 22.488 149.828 22.146 149.828H18.707V160.563C18.707 160.924 18.631 161 18.308 161H16.636C16.294 161 16.237 160.924 16.237 160.582V149.828H12.684C12.361 149.828 12.247 149.695 12.247 149.372V148.251C12.247 147.966 12.38 147.852 12.665 147.852H22.279C22.773 147.852 22.906 148.004 22.868 148.327ZM30.9329 156.383C30.9329 159.119 29.2609 161.228 26.2969 161.228C23.1999 161.228 21.7749 159.138 21.7749 156.364C21.7749 153.628 23.4469 151.538 26.4109 151.538C29.5079 151.538 30.9329 153.59 30.9329 156.383ZM28.5579 156.383C28.5579 154.825 28.0639 153.343 26.3919 153.343C24.7009 153.343 24.1499 154.806 24.1499 156.326C24.1499 157.884 24.6249 159.423 26.3159 159.423C27.9879 159.423 28.5579 157.941 28.5579 156.383ZM36.6482 159.404C37.1232 159.404 37.5222 159.29 37.8642 159.176C37.9402 159.157 38.0162 159.138 38.0732 159.138C38.1872 159.138 38.2632 159.195 38.3012 159.366L38.4912 160.316C38.5292 160.544 38.4532 160.696 38.2252 160.791C37.6362 161.038 36.8572 161.228 36.0972 161.228C35.1282 161.228 34.2922 160.981 33.8172 160.43C33.2282 159.765 33.2092 158.986 33.2092 157.599V153.362H32.3162C31.9552 153.362 31.8982 153.286 31.8982 152.887V152.165C31.8982 151.937 32.0122 151.785 32.2402 151.785H33.2092V149.714C33.2092 149.391 33.3802 149.296 33.6842 149.258L35.1472 149.087C35.3942 149.087 35.5082 149.22 35.5082 149.505V151.785H37.6552C37.8832 151.785 38.0162 151.861 38.0162 152.108V153.001C38.0162 153.229 37.8642 153.362 37.6362 153.362H35.5082V157.713C35.5082 158.283 35.5462 158.701 35.7552 159.005C35.9262 159.252 36.1922 159.404 36.6482 159.404ZM48.6792 159.746V160.639C48.6792 160.867 48.5272 161 48.2992 161H47.3872C46.3992 161 45.9622 160.525 45.8292 159.879H45.7912C45.3162 160.582 44.0812 161.228 43.0362 161.228C40.3572 161.228 39.1412 159.024 39.1412 156.554C39.1412 153.267 41.1172 151.538 43.2452 151.538C44.2522 151.538 45.2022 151.994 45.6772 152.64L45.7152 152.127C45.7342 151.918 45.8862 151.785 46.1142 151.785H47.4442C47.6912 151.785 47.8432 151.918 47.8432 152.203V158.796C47.8432 159.062 47.8812 159.252 47.9572 159.347C48.0142 159.404 48.0902 159.423 48.1852 159.423H48.3372C48.5652 159.423 48.6792 159.499 48.6792 159.746ZM45.5442 158.055V154.388C45.1642 153.837 44.3852 153.419 43.6632 153.419C42.5042 153.419 41.5162 154.407 41.5162 156.402C41.5162 157.998 42.1242 159.347 43.5302 159.347C44.4612 159.347 45.2592 158.644 45.5442 158.055ZM52.6239 147.833V160.525C52.6239 160.848 52.4719 161 52.2059 161H50.7619C50.4959 161 50.3249 160.867 50.3249 160.544V148.08C50.3249 147.757 50.4579 147.662 50.7049 147.624L52.2439 147.415C52.4719 147.415 52.6239 147.529 52.6239 147.833ZM67.8098 147.795V160.525C67.8098 160.848 67.6198 161 67.3918 161H66.1568C65.8528 161 65.7198 160.848 65.7008 160.62L65.6628 160.107C65.1308 160.715 64.0668 161.228 63.0788 161.228C60.3238 161.228 59.0698 159.043 59.0698 156.497C59.0698 153.837 60.5518 151.519 63.2308 151.519C64.0858 151.519 64.9788 151.861 65.5108 152.412V148.137C65.5108 147.795 65.6058 147.662 65.9098 147.624L67.5058 147.415C67.7338 147.415 67.8098 147.51 67.8098 147.795ZM65.5108 158.416V154.293C65.1308 153.78 64.4088 153.362 63.6868 153.362C62.1478 153.362 61.4638 154.806 61.4638 156.364C61.4638 157.922 62.0338 159.366 63.5728 159.366C64.2758 159.366 65.1308 158.891 65.5108 158.416ZM78.386 152.222V160.468C78.386 160.867 78.272 161 77.892 161H76.676C76.429 161 76.239 160.867 76.22 160.62L76.201 160.145C75.327 160.848 74.282 161.228 73.18 161.228C71.052 161.228 70.178 159.879 70.178 157.827V152.222C70.178 151.899 70.368 151.785 70.672 151.785H72.002C72.306 151.785 72.477 151.88 72.477 152.222V157.428C72.477 158.473 72.743 159.195 73.883 159.195C74.605 159.195 75.517 158.796 76.087 158.283V152.222C76.087 151.899 76.258 151.785 76.562 151.785H77.911C78.215 151.785 78.386 151.88 78.386 152.222ZM85.3336 159.385C86.1316 159.385 86.9296 159.214 87.6706 158.929C87.8796 158.853 88.0696 158.815 88.1456 159.1L88.4116 160.069C88.4306 160.164 88.4496 160.24 88.4496 160.297C88.4496 160.43 88.3736 160.525 88.1456 160.62C87.2146 161.038 85.9416 161.228 84.9536 161.228C81.9706 161.228 80.2036 159.328 80.2036 156.364C80.2036 153.514 82.0846 151.538 84.9156 151.538C86.0746 151.538 87.0246 151.975 87.6896 152.678C88.5636 153.59 88.8106 154.787 88.8106 156.079V156.364C88.8106 156.82 88.6586 156.915 88.1836 156.915H82.6166C82.7686 158.378 83.8326 159.385 85.3336 159.385ZM82.6546 155.414H86.5496V155.205C86.5116 154.217 85.9416 153.305 84.7826 153.305C83.5476 153.305 82.8066 154.293 82.6546 155.414ZM104.084 159.746V160.639C104.084 160.867 103.932 161 103.703 161H102.792C101.804 161 101.367 160.525 101.234 159.879H101.196C100.721 160.582 99.4855 161.228 98.4405 161.228C95.7615 161.228 94.5455 159.024 94.5455 156.554C94.5455 153.267 96.5215 151.538 98.6495 151.538C99.6565 151.538 100.607 151.994 101.082 152.64L101.12 152.127C101.139 151.918 101.291 151.785 101.519 151.785H102.849C103.096 151.785 103.248 151.918 103.248 152.203V158.796C103.248 159.062 103.286 159.252 103.362 159.347C103.419 159.404 103.495 159.423 103.59 159.423H103.742C103.969 159.423 104.084 159.499 104.084 159.746ZM100.949 158.055V154.388C100.569 153.837 99.7895 153.419 99.0675 153.419C97.9085 153.419 96.9205 154.407 96.9205 156.402C96.9205 157.998 97.5285 159.347 98.9345 159.347C99.8655 159.347 100.664 158.644 100.949 158.055ZM119.485 155.718V160.525C119.485 160.867 119.352 161 119.029 161H117.699C117.357 161 117.205 160.867 117.205 160.525V155.319C117.205 154.293 116.939 153.514 115.78 153.514C115.058 153.514 114.222 153.894 113.633 154.369C113.671 154.54 113.709 157.086 113.709 157.352V160.525C113.709 160.867 113.576 161 113.253 161H111.999C111.657 161 111.505 160.867 111.505 160.525V155.319C111.505 154.312 111.296 153.514 110.137 153.514C109.396 153.514 108.636 153.932 108.028 154.464V160.525C108.028 160.867 107.876 161 107.553 161H106.223C105.881 161 105.729 160.867 105.729 160.525V152.222C105.729 151.918 105.9 151.785 106.185 151.785H107.42C107.705 151.785 107.876 151.88 107.895 152.146L107.914 152.621C108.693 151.937 109.719 151.538 110.707 151.538C111.866 151.538 112.683 152.051 113.12 152.773C113.975 151.956 115.21 151.538 116.369 151.538C117.756 151.538 118.63 152.222 119.029 152.963C119.39 153.666 119.485 154.502 119.485 155.718ZM130.479 156.383C130.479 159.119 128.807 161.228 125.843 161.228C122.746 161.228 121.321 159.138 121.321 156.364C121.321 153.628 122.993 151.538 125.957 151.538C129.054 151.538 130.479 153.59 130.479 156.383ZM128.104 156.383C128.104 154.825 127.61 153.343 125.938 153.343C124.247 153.343 123.696 154.806 123.696 156.326C123.696 157.884 124.171 159.423 125.862 159.423C127.534 159.423 128.104 157.941 128.104 156.383ZM140.507 152.222V160.468C140.507 160.867 140.393 161 140.013 161H138.797C138.55 161 138.36 160.867 138.341 160.62L138.322 160.145C137.448 160.848 136.403 161.228 135.301 161.228C133.173 161.228 132.299 159.879 132.299 157.827V152.222C132.299 151.899 132.489 151.785 132.793 151.785H134.123C134.427 151.785 134.598 151.88 134.598 152.222V157.428C134.598 158.473 134.864 159.195 136.004 159.195C136.726 159.195 137.638 158.796 138.208 158.283V152.222C138.208 151.899 138.379 151.785 138.683 151.785H140.032C140.336 151.785 140.507 151.88 140.507 152.222ZM151.141 154.939V160.506C151.141 160.829 151.027 161 150.685 161H149.317C148.975 161 148.861 160.829 148.861 160.506V155.338C148.861 154.293 148.576 153.552 147.417 153.552C146.676 153.552 145.764 153.951 145.175 154.464V160.525C145.175 160.848 145.042 161 144.719 161H143.332C143.047 161 142.876 160.848 142.876 160.544V152.26C142.876 151.956 143.009 151.785 143.351 151.785H144.586C144.852 151.785 145.023 151.861 145.042 152.146L145.061 152.64C145.935 151.937 147.037 151.538 148.139 151.538C150.267 151.538 151.141 152.868 151.141 154.939ZM157.272 159.404C157.747 159.404 158.146 159.29 158.488 159.176C158.564 159.157 158.64 159.138 158.697 159.138C158.811 159.138 158.887 159.195 158.925 159.366L159.115 160.316C159.153 160.544 159.077 160.696 158.849 160.791C158.26 161.038 157.481 161.228 156.721 161.228C155.752 161.228 154.916 160.981 154.441 160.43C153.852 159.765 153.833 158.986 153.833 157.599V153.362H152.94C152.579 153.362 152.522 153.286 152.522 152.887V152.165C152.522 151.937 152.636 151.785 152.864 151.785H153.833V149.714C153.833 149.391 154.004 149.296 154.308 149.258L155.771 149.087C156.018 149.087 156.132 149.22 156.132 149.505V151.785H158.279C158.507 151.785 158.64 151.861 158.64 152.108V153.001C158.64 153.229 158.488 153.362 158.26 153.362H156.132V157.713C156.132 158.283 156.17 158.701 156.379 159.005C156.55 159.252 156.816 159.404 157.272 159.404Z" fill="#212121"/>
<path d="M297.444 156.861C297.444 159.812 295.793 161.528 293.622 161.528C291.295 161.528 289.93 159.786 289.93 156.952C289.93 154.131 291.477 152.285 293.739 152.285C296.131 152.285 297.444 154.157 297.444 156.861ZM296.157 156.9C296.157 154.612 295.299 153.286 293.713 153.286C292.218 153.286 291.204 154.768 291.204 156.913C291.204 159.188 292.114 160.54 293.674 160.54C295.143 160.54 296.157 159.136 296.157 156.9ZM307.932 161.164C307.932 161.346 307.867 161.398 307.698 161.398H306.957C306.775 161.398 306.723 161.32 306.71 161.099L306.489 154.807H306.463L303.954 161.242C303.902 161.372 303.824 161.398 303.72 161.398H303.278C303.148 161.398 303.083 161.372 303.018 161.216L300.301 154.807H300.288L300.132 161.164C300.132 161.346 300.067 161.398 299.872 161.398H299.235C299.066 161.398 299.001 161.346 299.001 161.177V161.151L299.3 152.714C299.313 152.493 299.365 152.441 299.508 152.441H300.067C300.275 152.441 300.34 152.493 300.405 152.636L303.564 159.721H303.577L306.489 152.649C306.554 152.493 306.619 152.441 306.775 152.441H307.373C307.529 152.441 307.568 152.506 307.581 152.675L307.932 161.125V161.164ZM314.301 161.164L312.351 157.758H311.103V161.125C311.103 161.294 311.025 161.398 310.856 161.398H310.141C309.972 161.398 309.894 161.307 309.894 161.125V152.727C309.894 152.519 309.959 152.441 310.154 152.441H312.026C313.196 152.441 314.197 152.675 314.769 153.377C315.12 153.806 315.302 154.378 315.302 155.067C315.302 156.315 314.509 157.199 313.482 157.55L313.495 157.576L315.614 161.125C315.692 161.242 315.666 161.398 315.484 161.398H314.704C314.509 161.398 314.392 161.333 314.301 161.164ZM314.08 155.08C314.08 153.806 313.274 153.364 311.935 153.364H311.103V156.848H312.104C313.248 156.848 314.08 156.237 314.08 155.08Z" fill="#8E8E8E"/>
<path d="M332.488 147.664C332.488 150.856 329.716 153.656 326.804 156.4C325.824 157.324 324.844 158.22 324.032 159.004H331.452C332.012 159.004 332.264 159.172 332.264 159.704V161.188C332.264 161.72 332.04 162 331.452 162H320.476C319.804 162 319.608 161.776 319.608 161.132V159.788C319.608 159.228 319.72 159.004 320.112 158.612C321.848 156.848 323.78 155.168 325.348 153.544C327.476 151.332 328.82 149.512 328.82 147.888C328.82 146.152 327.588 145.312 325.936 145.312C324.676 145.312 323.192 145.788 321.904 146.544C321.764 146.628 321.624 146.684 321.484 146.684C321.26 146.684 321.092 146.516 320.98 146.264L320.336 144.864C320.28 144.724 320.224 144.612 320.224 144.5C320.224 144.276 320.364 144.08 320.644 143.912C322.296 142.904 324.284 142.26 326.412 142.26C329.884 142.26 332.488 144.164 332.488 147.664ZM348.603 156.288C348.603 160.04 345.383 162.336 341.687 162.336C337.991 162.336 334.883 160.432 334.883 156.596C334.883 155.84 335.135 154.916 335.611 154.16C336.283 153.04 337.431 152.116 338.579 151.612C336.955 150.828 335.723 149.204 335.723 147.356C335.723 144.164 338.467 142.26 341.827 142.26C345.103 142.26 347.707 144.024 347.707 147.272C347.707 149.036 346.307 150.688 344.767 151.5C347.035 152.424 348.603 154.216 348.603 156.288ZM344.151 147.384C344.151 146.012 343.199 145.032 341.687 145.032C340.371 145.032 339.251 146.012 339.251 147.272C339.251 148.672 340.539 149.708 341.855 150.352C342.919 149.764 344.151 148.84 344.151 147.384ZM344.991 156.456C344.991 154.58 343.003 153.488 341.491 152.9C340.035 153.6 338.495 154.776 338.495 156.428C338.495 158.304 340.007 159.536 341.771 159.536C343.535 159.536 344.991 158.444 344.991 156.456ZM354.778 160.488C354.778 161.636 353.742 162.364 352.79 162.364C351.81 162.364 350.802 161.692 350.802 160.516C350.802 159.312 351.754 158.612 352.79 158.612C353.798 158.612 354.778 159.312 354.778 160.488ZM365.675 153.76V161.5C365.675 161.88 365.435 162 365.115 162H363.655C363.315 162 363.115 161.88 363.115 161.48V159H356.815C356.335 159 356.255 158.74 356.255 158.38V157.64C356.255 157.28 356.295 157.08 356.515 156.64L360.295 148.68C360.455 148.32 360.595 148.16 360.995 148.16H362.435C362.755 148.16 362.855 148.3 362.855 148.48C362.855 148.6 362.815 148.7 362.775 148.8L359.055 156.86H363.115V153.76C363.115 153.36 363.335 153.26 363.675 153.26H365.115C365.475 153.26 365.675 153.36 365.675 153.76ZM376.886 157.9C376.886 160.56 374.526 162.24 371.926 162.24C370.486 162.24 369.246 161.98 368.266 161.46C368.026 161.34 367.906 161.2 367.906 161.02C367.906 160.94 367.946 160.8 367.986 160.7L368.346 159.72C368.406 159.54 368.506 159.44 368.686 159.44C368.766 159.44 368.886 159.46 368.986 159.5C369.806 159.88 370.766 160.14 371.766 160.14C373.366 160.14 374.346 159.2 374.346 157.82C374.346 156.02 372.606 155.52 371.146 155.52H370.786C370.406 155.52 370.306 155.28 370.306 154.98V154.14C370.306 153.82 370.386 153.62 370.766 153.62H371.426C372.886 153.62 373.806 153.02 373.806 151.66C373.806 150.56 373.006 149.94 371.786 149.94C370.986 149.94 370.086 150.18 369.266 150.64C369.146 150.7 369.046 150.76 368.946 150.76C368.806 150.76 368.706 150.64 368.626 150.46L368.246 149.5C368.206 149.42 368.186 149.34 368.186 149.26C368.186 149.12 368.266 149 368.426 148.9C369.526 148.22 370.746 147.9 372.186 147.9C374.326 147.9 376.346 149.1 376.346 151.44C376.346 152.88 375.426 154.08 374.206 154.48C375.626 154.86 376.886 156.14 376.886 157.9Z" fill="#212121"/>
<g clip-path="url(#clip0_11691_39433)">
<g clip-path="url(#clip1_11691_39433)">
<path d="M152.372 206.718H147.873M152.372 203.223H147.873" stroke="#EA6E00" stroke-width="1.5" stroke-linecap="round" stroke-linejoin="round"/>
<path d="M144.848 199.395V202.984V209.848C144.848 211.047 143.877 212.018 142.678 212.018H152.793C154.529 212.018 155.493 210.849 155.493 208.958L155.5 199.395C155.5 198.703 154.838 198.254 154.264 198.548L153.72 198.835C153.396 199.005 153.021 199.012 152.682 198.864L151.145 198.181C150.52 197.908 149.828 197.908 149.203 198.181L147.665 198.864C147.327 199.012 146.952 199.005 146.628 198.835L146.084 198.548C145.51 198.254 144.848 198.71 144.848 199.395Z" stroke="#EA6E00" stroke-width="1.5" stroke-linecap="round" stroke-linejoin="round"/>
<path d="M142.678 212.02C142.075 212.02 141.531 211.777 141.141 211.387C140.743 210.99 140.5 210.446 140.5 209.85V203.81C140.5 203.118 141.162 202.669 141.736 202.964L142.281 203.251C142.604 203.42 142.979 203.427 143.318 203.28L144.355 202.817C144.436 202.78 144.642 202.875 144.848 202.985" stroke="#EA6E00" stroke-width="1.5" stroke-linecap="round" stroke-linejoin="round"/>
</g>
<path d="M166.657 199.62H167.977C168.292 199.62 168.442 199.725 168.517 199.935L171.172 207.345H171.217L173.722 199.98C173.812 199.71 173.947 199.62 174.292 199.62H175.342C175.627 199.62 175.672 199.8 175.597 199.995L172.072 209.67C171.997 209.88 171.832 210 171.607 210H170.602C170.317 210 170.182 209.88 170.092 209.625L166.402 200.04C166.312 199.815 166.372 199.605 166.657 199.62ZM178.857 200.82C178.857 201.405 178.347 201.765 177.852 201.765C177.357 201.765 176.832 201.435 176.832 200.835C176.832 200.235 177.327 199.875 177.852 199.875C178.362 199.875 178.857 200.22 178.857 200.82ZM178.767 203.07V209.625C178.767 209.895 178.647 210 178.392 210H177.342C177.072 210 176.952 209.895 176.952 209.625V203.07C176.952 202.815 177.102 202.725 177.342 202.725H178.392C178.632 202.725 178.767 202.8 178.767 203.07ZM184.358 208.725C184.988 208.725 185.618 208.59 186.203 208.365C186.368 208.305 186.518 208.275 186.578 208.5L186.788 209.265C186.803 209.34 186.818 209.4 186.818 209.445C186.818 209.55 186.758 209.625 186.578 209.7C185.843 210.03 184.838 210.18 184.058 210.18C181.703 210.18 180.308 208.68 180.308 206.34C180.308 204.09 181.793 202.53 184.028 202.53C184.943 202.53 185.693 202.875 186.218 203.43C186.908 204.15 187.103 205.095 187.103 206.115V206.34C187.103 206.7 186.983 206.775 186.608 206.775H182.213C182.333 207.93 183.173 208.725 184.358 208.725ZM182.243 205.59H185.318V205.425C185.288 204.645 184.838 203.925 183.923 203.925C182.948 203.925 182.363 204.705 182.243 205.59ZM196.728 202.725H197.883C198.048 202.725 198.108 202.8 198.108 202.905C198.108 202.935 198.108 202.995 198.093 203.04L196.083 209.64C196.008 209.865 195.888 210 195.618 210H194.598C194.328 210 194.208 209.865 194.133 209.625L192.888 205.35H192.858L191.628 209.655C191.553 209.895 191.418 210 191.148 210H190.143C189.903 210 189.738 209.85 189.678 209.64L187.713 203.04C187.698 202.995 187.698 202.95 187.698 202.92C187.698 202.785 187.803 202.725 187.998 202.725H189.228C189.513 202.725 189.603 202.83 189.648 203.01L190.728 207.75H190.743L192.138 203.025C192.198 202.8 192.348 202.725 192.543 202.725H193.383C193.608 202.725 193.743 202.8 193.788 202.98L195.153 207.78H195.168L196.293 203.055C196.338 202.845 196.458 202.725 196.728 202.725ZM209.732 206.37C209.732 208.44 208.667 210.18 206.432 210.18C205.757 210.18 204.947 209.79 204.527 209.325L204.467 209.82C204.452 209.955 204.332 210 204.137 210H203.237C202.982 210 202.877 209.88 202.877 209.625V199.845C202.877 199.605 202.937 199.47 203.177 199.44L204.437 199.275C204.587 199.275 204.692 199.335 204.692 199.575V203.265C205.172 202.845 205.892 202.53 206.672 202.53C207.497 202.53 208.112 202.8 208.592 203.235C209.387 203.94 209.732 205.11 209.732 206.37ZM207.857 206.385C207.857 205.17 207.482 204.06 206.237 204.06C205.682 204.06 205.097 204.36 204.692 204.735V207.945C205.052 208.35 205.607 208.68 206.162 208.68C207.467 208.68 207.857 207.555 207.857 206.385ZM213.208 200.82C213.208 201.405 212.698 201.765 212.203 201.765C211.708 201.765 211.183 201.435 211.183 200.835C211.183 200.235 211.678 199.875 212.203 199.875C212.713 199.875 213.208 200.22 213.208 200.82ZM213.118 203.07V209.625C213.118 209.895 212.998 210 212.743 210H211.693C211.423 210 211.303 209.895 211.303 209.625V203.07C211.303 202.815 211.453 202.725 211.693 202.725H212.743C212.983 202.725 213.118 202.8 213.118 203.07ZM216.909 199.605V209.625C216.909 209.88 216.789 210 216.579 210H215.439C215.229 210 215.094 209.895 215.094 209.64V199.8C215.094 199.545 215.199 199.47 215.394 199.44L216.609 199.275C216.789 199.275 216.909 199.365 216.909 199.605ZM220.615 199.605V209.625C220.615 209.88 220.495 210 220.285 210H219.145C218.935 210 218.8 209.895 218.8 209.64V199.8C218.8 199.545 218.905 199.47 219.1 199.44L220.315 199.275C220.495 199.275 220.615 199.365 220.615 199.605ZM233.084 202.89C233.084 205.215 231.329 206.355 229.124 206.355C229.004 206.355 228.329 206.325 228.224 206.31V209.64C228.224 209.865 228.134 210 227.849 210H226.649C226.409 210 226.289 209.895 226.289 209.595V200.025C226.289 199.725 226.379 199.62 226.664 199.62H228.839C230.429 199.62 231.599 199.92 232.334 200.76C232.814 201.315 233.084 202.08 233.084 202.89ZM231.134 202.965C231.134 201.6 230.294 201.12 229.004 201.12H228.224V204.84C228.344 204.84 229.019 204.855 229.109 204.855C230.384 204.855 231.134 204.255 231.134 202.965ZM243.264 204.855C243.264 206.655 242.649 208.005 241.629 208.875C240.699 209.655 239.394 210 237.909 210H235.044C234.744 210 234.609 209.925 234.609 209.58V200.07C234.609 199.755 234.699 199.62 235.074 199.62H237.234C238.959 199.62 240.129 199.815 241.119 200.385C242.469 201.165 243.264 202.635 243.264 204.855ZM241.194 204.84C241.194 203.475 240.789 202.44 240.024 201.87C239.409 201.42 238.614 201.255 237.654 201.255H236.559V208.38H237.714C238.749 208.38 239.619 208.215 240.249 207.585C240.849 206.985 241.194 206.085 241.194 204.84ZM251.01 199.62C251.295 199.62 251.355 199.74 251.325 199.965L251.22 200.865C251.19 201.135 251.025 201.18 250.71 201.18H246.945V203.895H250.41C250.695 203.895 250.785 204.015 250.785 204.225V205.08C250.785 205.335 250.68 205.44 250.425 205.44H246.945V209.625C246.945 209.895 246.84 210 246.585 210H245.415C245.115 210 245.01 209.925 245.01 209.595V199.995C245.01 199.755 245.115 199.62 245.355 199.62H251.01Z" fill="#EA6E00"/>
</g>
<rect x="12.75" y="185.75" width="364.5" height="38.5" rx="15.25" stroke="#EA6E00" stroke-width="1.5"/>
<defs>
<clipPath id="clip0_11691_39433">
<rect x="12" y="185" width="366" height="40" rx="16" fill="white"/>
</clipPath>
<clipPath id="clip1_11691_39433">
<rect width="20" height="20" fill="white" transform="translate(138 195)"/>
</clipPath>
</defs>
</svg>
